<svg width="14" height="13" viewBox="0 0 14 13" fill="none" xmlns="http://www.w3.org/2000/svg">
<path opacity="0.4" d="M13.5555 4.22221H12.7358C12.4921 3.67106 12.1389 3.17525 11.6975 2.76499L12.2222 0.666656H11.3333C10.5166 0.666656 9.79468 1.04166 9.30552 1.61999C9.09524 1.58943 8.88552 1.55555 8.66663 1.55555H5.11107C2.47718 1.55555 0.666627 3.74666 0.666627 5.99999C0.666087 6.69006 0.826495 7.37075 1.13511 7.98797C1.44372 8.60519 1.89202 9.14193 2.44441 9.55555V11.7778C2.44441 11.8956 2.49123 12.0087 2.57458 12.092C2.65793 12.1754 2.77098 12.2222 2.88885 12.2222H4.66663C4.7845 12.2222 4.89755 12.1754 4.9809 12.092C5.06425 12.0087 5.11107 11.8956 5.11107 11.7778V10.4444H8.66663V11.7778C8.66663 11.8956 8.71345 12.0087 8.7968 12.092C8.88015 12.1754 8.9932 12.2222 9.11107 12.2222H10.8889C11.0067 12.2222 11.1198 12.1754 11.2031 12.092C11.2865 12.0087 11.3333 11.8956 11.3333 11.7778V9.53555C11.6617 9.28744 11.9541 8.99503 12.2022 8.66666H13.5555C13.6734 8.66666 13.7864 8.61983 13.8698 8.53648C13.9531 8.45313 14 8.34009 14 8.22221V4.66666C14 4.54878 13.9531 4.43574 13.8698 4.35239C13.7864 4.26904 13.6734 4.22221 13.5555 4.22221ZM9.99996 5.99999C9.91206 5.99999 9.82613 5.97392 9.75304 5.92509C9.67995 5.87625 9.62299 5.80684 9.58935 5.72563C9.55571 5.64441 9.54691 5.55505 9.56406 5.46884C9.58121 5.38262 9.62353 5.30343 9.68569 5.24128C9.74785 5.17912 9.82704 5.13679 9.91325 5.11964C9.99947 5.10249 10.0888 5.11129 10.17 5.14493C10.2513 5.17857 10.3207 5.23554 10.3695 5.30863C10.4183 5.38171 10.4444 5.46764 10.4444 5.55555C10.4444 5.67342 10.3976 5.78647 10.3142 5.86982C10.2309 5.95317 10.1178 5.99999 9.99996 5.99999Z" fill="#213F7D"/>
</svg>
